<?xml version="1.0" standalone="no"?>
<!DOCTYPE svg PUBLIC "-//W3C//DTD SVG 20010904//EN"
 "http://www.w3.org/TR/2001/REC-SVG-20010904/DTD/svg10.dtd">
<svg version="1.0" xmlns="http://www.w3.org/2000/svg"
 width="16.000000pt" height="16.000000pt" viewBox="0 0 16.000000 16.000000"
 preserveAspectRatio="xMidYMid meet">
<metadata>
Created by potrace 1.11, written by Peter Selinger 2001-2013
</metadata>
<g transform="translate(0.000000,16.000000) scale(0.012500,-0.012500)"
fill="#000000" stroke="none">
<path d="M320 1112 c-6 -2 -10 -169 -10 -473 l0 -469 335 0 335 0 0 90 0 90
-229 0 c-174 0 -230 3 -233 13 -2 6 -3 53 -3 102 l1 90 189 2 c105 1 207 2
228 2 l37 1 0 90 0 90 -225 0 c-207 0 -225 1 -226 18 0 9 -2 52 -2 95 l-2 77
232 0 233 0 0 90 c0 65 -3 90 -12 91 -37 3 -640 3 -648 1z"/>
</g>
</svg>
